<svg width="3333" height="3333" xmlns="http://www.w3.org/2000/svg" clip-rule="evenodd" fill-rule="evenodd" image-rendering="optimizeQuality" text-rendering="geometricPrecision" shape-rendering="geometricPrecision">

 <g>
  <title>Layer 1</title>
  <path fill="#BBBBBB" id="svg_1" d="m1667,0c920,0 1667,746 1667,1667c0,920 -746,1667 -1667,1667c-920,0 -1667,-746 -1667,-1667c0,-920 746,-1667 1667,-1667zm186,1117l311,0l0,-373l-311,0c-240,0 -435,195 -435,435l0,186l-249,0l0,373l249,0l0,994l373,0l0,-994l311,0l62,-373l-373,0l0,-186c0,-34 28,-62 62,-62z"/>
 </g>
</svg>